<svg width="98" height="148" viewBox="0 0 98 148" fill="none" xmlns="http://www.w3.org/2000/svg">
<path d="M5.916 0.936768C5.23131 0.936874 4.5539 1.0776 3.92583 1.35022C3.29775 1.62284 2.73237 2.02152 2.26469 2.52161C1.79702 3.02169 1.43706 3.61254 1.20708 4.25745C0.977091 4.90236 0.882014 5.58759 0.927719 6.27075L10.1221 143.271C10.21 144.535 10.7734 145.719 11.6988 146.584C12.6243 147.45 13.8431 147.933 15.1103 147.937H82.8896C84.1568 147.933 85.3757 147.45 86.3011 146.584C87.2266 145.719 87.7899 144.535 87.8779 143.271L97.0723 6.27075C97.118 5.58759 97.0229 4.90236 96.7929 4.25745C96.5629 3.61254 96.2029 3.02169 95.7352 2.52161C95.2675 2.02152 94.7022 1.62284 94.0741 1.35022C93.446 1.0776 92.7687 0.936874 92.084 0.936768H5.916Z" fill="#52C773"/>
<path d="M36 24.4368C35.4698 24.4375 34.9615 24.6484 34.5865 25.0233C34.2116 25.3982 34.0007 25.9065 34 26.4368V37.4368C34.0007 37.967 34.2116 38.4753 34.5865 38.8502C34.9615 39.2251 35.4698 39.4361 36 39.4368H53C53.5302 39.4361 54.0385 39.2251 54.4135 38.8502C54.7884 38.4753 54.9993 37.967 55 37.4368V26.4368C54.9993 25.9065 54.7884 25.3982 54.4135 25.0233C54.0385 24.6484 53.5302 24.4375 53 24.4368H36Z" fill="#E6E6E6"/>
<path d="M55 53.4368C54.4698 53.4375 53.9615 53.6484 53.5865 54.0233C53.2116 54.3982 53.0007 54.9065 53 55.4368V66.4368C53.0007 66.967 53.2116 67.4753 53.5865 67.8502C53.9615 68.2251 54.4698 68.4361 55 68.4368H72C72.5302 68.4361 73.0385 68.2251 73.4135 67.8502C73.7884 67.4753 73.9993 66.967 74 66.4368V55.4368C73.9993 54.9065 73.7884 54.3982 73.4135 54.0233C73.0385 53.6484 72.5302 53.4375 72 53.4368H55Z" fill="#E6E6E6"/>
<path d="M37 77.4368C36.4698 77.4375 35.9615 77.6484 35.5865 78.0233C35.2116 78.3982 35.0007 78.9065 35 79.4368V90.4368C35.0007 90.967 35.2116 91.4753 35.5865 91.8502C35.9615 92.2251 36.4698 92.4361 37 92.4368H54C54.5302 92.4361 55.0385 92.2251 55.4135 91.8502C55.7884 91.4753 55.9993 90.967 56 90.4368V79.4368C55.9993 78.9065 55.7884 78.3982 55.4135 78.0233C55.0385 77.6484 54.5302 77.4375 54 77.4368H37Z" fill="#E6E6E6"/>
</svg>
